<?xml version="1.0" encoding="UTF-8" standalone="no"?>
<!DOCTYPE svg PUBLIC "-//W3C//DTD SVG 1.1//EN"
 "http://www.w3.org/Graphics/SVG/1.1/DTD/svg11.dtd">
<!-- Generated by graphviz version 2.40.1 (20161225.0304)
 -->
<!-- Title: flowchart Pages: 1 -->
<svg width="292pt" height="422pt"
 viewBox="0.00 0.00 291.60 422.40" xmlns="http://www.w3.org/2000/svg" xmlns:xlink="http://www.w3.org/1999/xlink">
<g id="graph0" class="graph" transform="scale(1 1) rotate(0) translate(4 418.4)">
<title>flowchart</title>
<polygon fill="#ffffff" stroke="transparent" points="-4,4 -4,-418.4 287.6012,-418.4 287.6012,4 -4,4"/>
<!-- A -->
<g id="node1" class="node">
<title>A</title>
<polygon fill="#add8e6" stroke="#000000" points="236.588,-414.3005 47.0132,-414.3005 47.0132,-377.6995 236.588,-377.6995 236.588,-414.3005"/>
<text text-anchor="middle" x="141.8006" y="-399.6" font-family="Times,serif" font-size="12.00" fill="#000000">Import Data</text>
<text text-anchor="middle" x="141.8006" y="-385.2" font-family="Times,serif" font-size="12.00" fill="#000000">(Data Jobs &amp; Productivity Datasets)</text>
</g>
<!-- B -->
<g id="node2" class="node">
<title>B</title>
<polygon fill="#add8e6" stroke="#000000" points="260.235,-341.5005 23.3662,-341.5005 23.3662,-304.8995 260.235,-304.8995 260.235,-341.5005"/>
<text text-anchor="middle" x="141.8006" y="-326.8" font-family="Times,serif" font-size="12.00" fill="#000000">Data Cleaning &amp; Preparation</text>
<text text-anchor="middle" x="141.8006" y="-312.4" font-family="Times,serif" font-size="12.00" fill="#000000">(Remove Duplicates, Handle Missing Values)</text>
</g>
<!-- A&#45;&gt;B -->
<g id="edge1" class="edge">
<title>A&#45;&gt;B</title>
<path fill="none" stroke="#000000" d="M141.8006,-377.6295C141.8006,-369.7836 141.8006,-360.4426 141.8006,-351.7328"/>
<polygon fill="#000000" stroke="#000000" points="145.3007,-351.5646 141.8006,-341.5646 138.3007,-351.5647 145.3007,-351.5646"/>
</g>
<!-- C -->
<g id="node3" class="node">
<title>C</title>
<polygon fill="#add8e6" stroke="#000000" points="235.9389,-268.7005 47.6623,-268.7005 47.6623,-232.0995 235.9389,-232.0995 235.9389,-268.7005"/>
<text text-anchor="middle" x="141.8006" y="-254" font-family="Times,serif" font-size="12.00" fill="#000000">Exploratory Analysis</text>
<text text-anchor="middle" x="141.8006" y="-239.6" font-family="Times,serif" font-size="12.00" fill="#000000">(Distributions, Ratios, Correlations)</text>
</g>
<!-- B&#45;&gt;C -->
<g id="edge2" class="edge">
<title>B&#45;&gt;C</title>
<path fill="none" stroke="#000000" d="M141.8006,-304.8295C141.8006,-296.9836 141.8006,-287.6426 141.8006,-278.9328"/>
<polygon fill="#000000" stroke="#000000" points="145.3007,-278.7646 141.8006,-268.7646 138.3007,-278.7647 145.3007,-278.7646"/>
</g>
<!-- D -->
<g id="node4" class="node">
<title>D</title>
<polygon fill="#add8e6" stroke="#000000" points="262.0772,-196.1004 21.524,-196.1004 21.524,-144.6996 262.0772,-144.6996 262.0772,-196.1004"/>
<text text-anchor="middle" x="141.8006" y="-181.2" font-family="Times,serif" font-size="12.00" fill="#000000">Visualizations</text>
<text text-anchor="middle" x="141.8006" y="-166.8" font-family="Times,serif" font-size="12.00" fill="#000000">(Salary Distributions, Experience Levels And</text>
<text text-anchor="middle" x="141.8006" y="-152.4" font-family="Times,serif" font-size="12.00" fill="#000000"> Geographic Locations Among Work Settings)</text>
</g>
<!-- C&#45;&gt;D -->
<g id="edge3" class="edge">
<title>C&#45;&gt;D</title>
<path fill="none" stroke="#000000" d="M141.8006,-231.8453C141.8006,-224.2148 141.8006,-215.1062 141.8006,-206.2693"/>
<polygon fill="#000000" stroke="#000000" points="145.3007,-206.1252 141.8006,-196.1253 138.3007,-206.1253 145.3007,-206.1252"/>
</g>
<!-- E -->
<g id="node5" class="node">
<title>E</title>
<polygon fill="#add8e6" stroke="#000000" points="283.4021,-108.7005 .1991,-108.7005 .1991,-72.0995 283.4021,-72.0995 283.4021,-108.7005"/>
<text text-anchor="middle" x="141.8006" y="-94" font-family="Times,serif" font-size="12.00" fill="#000000">Insights &amp; Relationships</text>
<text text-anchor="middle" x="141.8006" y="-79.6" font-family="Times,serif" font-size="12.00" fill="#000000">(Remote Work Impact on Productivity and Well Being)</text>
</g>
<!-- D&#45;&gt;E -->
<g id="edge4" class="edge">
<title>D&#45;&gt;E</title>
<path fill="none" stroke="#000000" d="M141.8006,-144.6471C141.8006,-136.4253 141.8006,-127.2797 141.8006,-118.8761"/>
<polygon fill="#000000" stroke="#000000" points="145.3007,-118.7536 141.8006,-108.7536 138.3007,-118.7537 145.3007,-118.7536"/>
</g>
<!-- F -->
<g id="node6" class="node">
<title>F</title>
<polygon fill="#add8e6" stroke="#000000" points="179.6341,-36 103.9671,-36 103.9671,0 179.6341,0 179.6341,-36"/>
<text text-anchor="middle" x="141.8006" y="-14.4" font-family="Times,serif" font-size="12.00" fill="#000000">Conclusions</text>
</g>
<!-- E&#45;&gt;F -->
<g id="edge5" class="edge">
<title>E&#45;&gt;F</title>
<path fill="none" stroke="#000000" d="M141.8006,-71.7552C141.8006,-64.0958 141.8006,-55.0529 141.8006,-46.5909"/>
<polygon fill="#000000" stroke="#000000" points="145.3007,-46.3309 141.8006,-36.331 138.3007,-46.331 145.3007,-46.3309"/>
</g>
</g>
</svg>

